<svg width="16" height="16" viewBox="0 0 368 361" fill="none" xmlns="http://www.w3.org/2000/svg">
<path d="M11.4997 78.9686H356.499C362.848 78.9686 367.999 73.9142 367.999 67.6876C367.999 61.4601 362.847 56.4067 356.499 56.4067H11.4997C5.1524 56.4067 0 61.4601 0 67.6876C0 73.9151 5.1524 78.9686 11.4997 78.9686Z" fill="white"/>
<path d="M356.499 169.219H11.4997C5.15145 169.219 0 174.273 0 180.5C0 186.727 5.1524 191.781 11.4997 191.781H356.499C362.848 191.781 367.999 186.727 367.999 180.5C367.999 174.273 362.848 169.219 356.499 169.219Z" fill="white"/>
<path d="M356.499 282.031H11.4997C5.15145 282.031 0 287.086 0 293.312C0 299.54 5.1524 304.593 11.4997 304.593H356.499C362.848 304.593 367.999 299.539 367.999 293.312C368 287.085 362.848 282.031 356.499 282.031Z" fill="white"/>
</svg>
